<svg width="48" height="48" viewBox="0 0 48 48" fill="none" xmlns="http://www.w3.org/2000/svg">
<rect width="48" height="48" rx="24" fill="white"/>
<path fill-rule="evenodd" clip-rule="evenodd" d="M26.0347 15.0347C26.6674 14.402 27.5607 14.1458 28.5833 14.1458H30.4167C31.4393 14.1458 32.3326 14.402 32.9653 15.0347C33.598 15.6674 33.8542 16.5607 33.8542 17.5833V19.4167C33.8542 20.4393 33.598 21.3326 32.9653 21.9653C32.3326 22.598 31.4393 22.8542 30.4167 22.8542H28.5833C27.5607 22.8542 26.6674 22.598 26.0347 21.9653C25.402 21.3326 25.1458 20.4393 25.1458 19.4167V17.5833C25.1458 16.5607 25.402 15.6674 26.0347 15.0347ZM27.007 16.007C26.723 16.2909 26.5208 16.7726 26.5208 17.5833V19.4167C26.5208 20.2274 26.723 20.7091 27.007 20.993C27.2909 21.277 27.7726 21.4792 28.5833 21.4792H30.4167C31.2274 21.4792 31.7091 21.277 31.993 20.993C32.277 20.7091 32.4792 20.2274 32.4792 19.4167V17.5833C32.4792 16.7726 32.277 16.2909 31.993 16.007C31.7091 15.723 31.2274 15.5208 30.4167 15.5208H28.5833C27.7726 15.5208 27.2909 15.723 27.007 16.007Z" fill="#E65F2B"/>
<path fill-rule="evenodd" clip-rule="evenodd" d="M15.0347 26.0347C15.6674 25.402 16.5607 25.1458 17.5833 25.1458H19.4167C20.4393 25.1458 21.3326 25.402 21.9653 26.0347C22.598 26.6674 22.8542 27.5607 22.8542 28.5833V30.4167C22.8542 31.4393 22.598 32.3326 21.9653 32.9653C21.3326 33.598 20.4393 33.8542 19.4167 33.8542H17.5833C16.5607 33.8542 15.6674 33.598 15.0347 32.9653C14.402 32.3326 14.1458 31.4393 14.1458 30.4167V28.5833C14.1458 27.5607 14.402 26.6674 15.0347 26.0347ZM16.007 27.007C15.723 27.2909 15.5208 27.7726 15.5208 28.5833V30.4167C15.5208 31.2274 15.723 31.7091 16.007 31.993C16.2909 32.277 16.7726 32.4792 17.5833 32.4792H19.4167C20.2274 32.4792 20.7091 32.277 20.993 31.993C21.277 31.7091 21.4792 31.2274 21.4792 30.4167V28.5833C21.4792 27.7726 21.277 27.2909 20.993 27.007C20.7091 26.723 20.2274 26.5208 19.4167 26.5208H17.5833C16.7726 26.5208 16.2909 26.723 16.007 27.007Z" fill="#E65F2B"/>
<path fill-rule="evenodd" clip-rule="evenodd" d="M18.5 15.5208C16.8547 15.5208 15.5208 16.8547 15.5208 18.5C15.5208 20.1453 16.8547 21.4792 18.5 21.4792C20.1453 21.4792 21.4792 20.1453 21.4792 18.5C21.4792 16.8547 20.1453 15.5208 18.5 15.5208ZM14.1458 18.5C14.1458 16.0953 16.0953 14.1458 18.5 14.1458C20.9047 14.1458 22.8542 16.0953 22.8542 18.5C22.8542 20.9047 20.9047 22.8542 18.5 22.8542C16.0953 22.8542 14.1458 20.9047 14.1458 18.5Z" fill="#E65F2B"/>
<path fill-rule="evenodd" clip-rule="evenodd" d="M29.5 26.5208C27.8547 26.5208 26.5208 27.8547 26.5208 29.5C26.5208 31.1453 27.8547 32.4792 29.5 32.4792C31.1453 32.4792 32.4792 31.1453 32.4792 29.5C32.4792 27.8547 31.1453 26.5208 29.5 26.5208ZM25.1458 29.5C25.1458 27.0953 27.0953 25.1458 29.5 25.1458C31.9047 25.1458 33.8542 27.0953 33.8542 29.5C33.8542 31.9047 31.9047 33.8542 29.5 33.8542C27.0953 33.8542 25.1458 31.9047 25.1458 29.5Z" fill="#E65F2B"/>
</svg>
