<svg width="22" height="22" viewBox="0 0 22 22" fill="none" xmlns="http://www.w3.org/2000/svg">
<path fill-rule="evenodd" clip-rule="evenodd" d="M11 2.52081C8.8484 2.52081 7.10417 4.26504 7.10417 6.41665C7.10417 8.56826 8.8484 10.3125 11 10.3125C13.1516 10.3125 14.8958 8.56826 14.8958 6.41665C14.8958 4.26504 13.1516 2.52081 11 2.52081ZM5.72917 6.41665C5.72917 3.50565 8.089 1.14581 11 1.14581C13.911 1.14581 16.2708 3.50565 16.2708 6.41665C16.2708 9.32765 13.911 11.6875 11 11.6875C8.089 11.6875 5.72917 9.32765 5.72917 6.41665Z" fill="white"/>
<path fill-rule="evenodd" clip-rule="evenodd" d="M2.43834 20.1667C2.43834 16.1142 6.41403 13.0625 11 13.0625C15.586 13.0625 19.5617 16.1142 19.5617 20.1667C19.5617 20.5464 19.2539 20.8542 18.8742 20.8542C18.4945 20.8542 18.1867 20.5464 18.1867 20.1667C18.1867 17.1241 15.104 14.4375 11 14.4375C6.89597 14.4375 3.81334 17.1241 3.81334 20.1667C3.81334 20.5464 3.50554 20.8542 3.12584 20.8542C2.74614 20.8542 2.43834 20.5464 2.43834 20.1667Z" fill="white"/>
</svg>
