<svg width="22" height="22" viewBox="0 0 22 22" fill="none" xmlns="http://www.w3.org/2000/svg">
<path d="M8.85432 17.6994C10.8207 17.6994 12.7309 17.0433 14.2822 15.835L20.1349 21.6877C20.5721 22.11 21.2688 22.0979 21.6911 21.6607C22.103 21.2342 22.103 20.558 21.6911 20.1316L15.8384 14.2789C18.8367 10.4192 18.1385 4.8597 14.2788 1.86137C10.4192 -1.13697 4.8597 -0.438759 1.86137 3.42091C-1.13697 7.28058 -0.438759 12.8401 3.42091 15.8384C4.97478 17.0455 6.88666 17.7004 8.85432 17.6994ZM4.15172 4.14834C6.74892 1.55109 10.9598 1.55104 13.5571 4.14824C16.1543 6.74544 16.1544 10.9563 13.5572 13.5536C10.96 16.1508 6.74907 16.1509 4.15182 13.5537L4.15172 13.5536C1.55452 10.9753 1.53922 6.77976 4.1175 4.18256L4.15172 4.14834Z" fill="#A4A4A4"/>
</svg>
